<svg id="Layer_1" data-name="Layer 1" xmlns="http://www.w3.org/2000/svg" viewBox="0 0 581.02 283.69"><defs><style>.cls-1{fill:#1d1d1b;}.cls-2{fill:#010101;}.cls-3{fill:none;}</style></defs><rect class="cls-1" x="108.91" y="249.72" width="6.96" height="33.96"/><rect class="cls-1" x="750.02" y="727.84" width="6.96" height="38.89" transform="translate(836.75 -473.29) rotate(90)"/><rect class="cls-1" x="664.04" y="716.8" width="6.96" height="33.96" transform="translate(671 1000.49) rotate(-180)"/><rect class="cls-1" x="686.96" y="727.84" width="6.96" height="38.89" transform="translate(773.7 -410.24) rotate(90)"/><rect class="cls-1" x="108.89" y="178.79" width="6.96" height="33.96"/><rect class="cls-1" x="750" y="629.91" width="6.96" height="38.89" transform="translate(-559.91 935.76) rotate(-90)"/><rect class="cls-1" x="664.04" y="645.88" width="6.96" height="33.96" transform="translate(671 858.63) rotate(180)"/><rect class="cls-1" x="686.96" y="629.91" width="6.96" height="38.89" transform="translate(-622.95 872.72) rotate(-90)"/><rect class="cls-1" x="129.96" y="187.85" width="186.43" height="7.93"/><rect class="cls-1" x="316.39" y="72.92" width="11.14" height="161"/><rect class="cls-1" x="327.54" y="100.42" width="215.57" height="7.93"/><circle class="cls-1" cx="724.62" cy="668.95" r="7.08" transform="translate(-924.82 241.23) rotate(-45)"/><path class="cls-1" d="M698.43,735.82a4.3,4.3,0,0,0,4.61-1.18l9.64-17.78a4.83,4.83,0,0,0-1.18-3.65,5,5,0,0,0-6-.64L696.29,730A4.44,4.44,0,0,0,698.43,735.82Z" transform="translate(-664.04 -467.08)"/><path class="cls-1" d="M704.54,672.39a6.75,6.75,0,0,1,4.07,1.72,10.63,10.63,0,0,1,3.43,4.6q-3.49,11.68-7,23.36a3.67,3.67,0,0,1-5.78-.75l-.54-24.53C700,674.19,702.21,672.4,704.54,672.39Z" transform="translate(-664.04 -467.08)"/><path class="cls-1" d="M718.89,677.86c2.4-.66,4.53.9,9,4.07,3.63,2.57,9.39,6.6,17,11.78a2.79,2.79,0,0,1-2.25,4.72q-1.08,19-2.14,38a2.43,2.43,0,0,1-1.5.65,2.57,2.57,0,0,1-2-1l2.79-38.68-14.15-7.82a16,16,0,0,0-4.5,5.25,15.87,15.87,0,0,0-1.82,8l10.5,11.25a78.22,78.22,0,0,1,.86,8,77,77,0,0,1-.22,11.25,3.8,3.8,0,0,1-7.5.54l-.21-15.32L711.5,709a7.66,7.66,0,0,1-3.75-4.29c-.48-1.63-.1-3,.43-4.82a75.73,75.73,0,0,1,3.11-9.43C714.91,682.47,716.73,678.45,718.89,677.86Z" transform="translate(-664.04 -467.08)"/><path class="cls-1" d="M674.47,631.94v-2.4l5.28-1.56a2,2,0,0,0,.91-.53,1.58,1.58,0,0,0,.34-1.07V589.9H670.44a1.31,1.31,0,0,0-.9.32,1.37,1.37,0,0,0-.48.89L667.78,598H664V586.06h40.64V598h-3.75l-1.28-6.88a1.54,1.54,0,0,0-.48-.93,1.31,1.31,0,0,0-.86-.28H687.72v36.48a1.49,1.49,0,0,0,.36,1.07,2.26,2.26,0,0,0,.88.53l5.28,1.56v2.4Z" transform="translate(-664.04 -467.08)"/><path class="cls-1" d="M710.43,631.94v-2.4l4.93-1.56a2,2,0,0,0,.88-.53,1.53,1.53,0,0,0,.34-1.07V591.56a1.39,1.39,0,0,0-.35-1,2.13,2.13,0,0,0-.87-.52l-4.93-1.63v-2.33h18.76a29.75,29.75,0,0,1,8.56,1,13.07,13.07,0,0,1,5.12,2.72,9.18,9.18,0,0,1,2.49,3.74,12.92,12.92,0,0,1,.69,4.13,11.89,11.89,0,0,1-1.66,6.42,13.3,13.3,0,0,1-4.13,4.24,15.48,15.48,0,0,1-4.9,2.11l-5.18,2.11-7.36-1.5.29-3.43a7.35,7.35,0,0,0,1.37.21c.73.08,1.5.13,2.32.18s1.47.06,1.94.06a11.49,11.49,0,0,0,5.69-1.26,8.31,8.31,0,0,0,3.35-3.35,9.39,9.39,0,0,0,1.1-4.44q0-4.8-2.75-7t-8.06-2.16H723.3v36.48a1.53,1.53,0,0,0,.35,1.07,2.05,2.05,0,0,0,.86.53l5.06,1.56v2.4Zm44.64,0h-7.74a10.58,10.58,0,0,1-3.2-.36,4,4,0,0,1-1.79-1.27q-.74-.9-1.89-2.49L729,612l6.5-2,12.06,16a8.38,8.38,0,0,0,1.14,1.23,3.63,3.63,0,0,0,1.49.91l4.92,1.44Z" transform="translate(-664.04 -467.08)"/><path class="cls-1" d="M754.5,631.94v-2.4l3.26-1.44a3,3,0,0,0,1.63-1.76l13-33.34,3.77-7.65h3.62L796,626.44a5.48,5.48,0,0,0,.62,1,2.08,2.08,0,0,0,.92.72l3.39,1.34v2.4h-17v-2.4l5.37-1.85-11.45-29.35L776.61,594h-.54l-12.64,33.51,5.44,2v2.4Zm12.8-16.09,1.57-4.45h14.75l1.57,4.45Z" transform="translate(-664.04 -467.08)"/><path class="cls-1" d="M819.49,632.58l-16.26-41.12a5,5,0,0,0-.59-1,2.1,2.1,0,0,0-1-.7l-3.4-1.41v-2.33h17v2.33l-5.34,1.89,11.55,29.38,1.22,4.25h.51l12.64-33.44-5.35-2.08v-2.33H844.8v2.33l-3.3,1.51a3,3,0,0,0-1,.67,2.8,2.8,0,0,0-.64,1L826.82,625l-3.62,7.58Z" transform="translate(-664.04 -467.08)"/><path class="cls-1" d="M848.42,631.94v-2.4l4.92-1.56a1.9,1.9,0,0,0,.88-.53,1.53,1.53,0,0,0,.34-1.07V591.56a1.39,1.39,0,0,0-.35-1,2.07,2.07,0,0,0-.87-.52l-4.92-1.63v-2.33H884v11.39h-3.77L879,591.14a1.67,1.67,0,0,0-.48-.88,1.34,1.34,0,0,0-.9-.3H861.28v16.16h9.82a1.4,1.4,0,0,0,.95-.27,1.58,1.58,0,0,0,.43-.88l1.15-5.06h3.07v16.35h-3.07l-1.15-5a1.72,1.72,0,0,0-.43-.91,1.26,1.26,0,0,0-.95-.31h-9.82v18h18.85a1.28,1.28,0,0,0,.85-.32,1.45,1.45,0,0,0,.46-.9l1.28-7h3.74v12.16Z" transform="translate(-664.04 -467.08)"/><path class="cls-1" d="M893.79,631.94v-2.4l4.93-1.56a2.3,2.3,0,0,0,.85-.53,1.49,1.49,0,0,0,.37-1.07V591.56a1.42,1.42,0,0,0-.34-1,1.93,1.93,0,0,0-.88-.52l-4.93-1.63v-2.33h19.07v2.33l-5,1.63a2.26,2.26,0,0,0-.88.53,1.39,1.39,0,0,0-.36,1V628h16.51a1.29,1.29,0,0,0,.93-.37,1.72,1.72,0,0,0,.48-1l1.4-9.41h3.88v14.65Z" transform="translate(-664.04 -467.08)"/><path class="cls-1" d="M936.29,630.12l-.19-12.26h3.77l1.35,6.63a1.71,1.71,0,0,0,.59.89,9.62,9.62,0,0,0,.85.71,28.41,28.41,0,0,0,2.65,1.47,16.92,16.92,0,0,0,3.06,1.14,13.12,13.12,0,0,0,3.31.43q5,0,7.84-2.18a7.07,7.07,0,0,0,2.85-6,6.69,6.69,0,0,0-1.7-4.7,12.39,12.39,0,0,0-4.54-3,55.87,55.87,0,0,0-5.43-2q-2.67-.82-5.23-1.87a14.3,14.3,0,0,1-6.08-4.52,11.31,11.31,0,0,1-2.21-7,11.06,11.06,0,0,1,2.07-6.6,14.22,14.22,0,0,1,5.58-4.58A18.05,18.05,0,0,1,952.7,585a38.25,38.25,0,0,1,5,.32c1.59.21,3.11.48,4.55.8s2.81.64,4.11,1v11.74h-3.75l-1.28-6.27a1.67,1.67,0,0,0-.57-.88,7.21,7.21,0,0,0-.87-.69,9.38,9.38,0,0,0-1.8-1,13.69,13.69,0,0,0-2.39-.76,13.19,13.19,0,0,0-2.81-.28,11.42,11.42,0,0,0-7.06,1.92,5.74,5.74,0,0,0-2.51,4.7,8.57,8.57,0,0,0,1.36,4.66c.9,1.44,2.65,2.64,5.23,3.6q2.57.91,5,1.76t5.38,2a20.1,20.1,0,0,1,4.11,2.34,10.82,10.82,0,0,1,4.5,9.31,13,13,0,0,1-1.83,6.64,13.26,13.26,0,0,1-5.76,5.14,23,23,0,0,1-10.3,2,26,26,0,0,1-4.67-.45q-2.46-.45-5-1.12C939.64,631,938,630.57,936.29,630.12Z" transform="translate(-664.04 -467.08)"/><path class="cls-1" d="M997.28,630.12l-.19-12.26h3.77l1.35,6.63a1.71,1.71,0,0,0,.59.89,9.62,9.62,0,0,0,.85.71,28.41,28.41,0,0,0,2.65,1.47,16.92,16.92,0,0,0,3.06,1.14,13.12,13.12,0,0,0,3.31.43q5,0,7.84-2.18a7.07,7.07,0,0,0,2.85-6,6.69,6.69,0,0,0-1.7-4.7,12.39,12.39,0,0,0-4.54-3,56.68,56.68,0,0,0-5.42-2c-1.79-.55-3.53-1.17-5.24-1.87a14.36,14.36,0,0,1-6.08-4.52,11.3,11.3,0,0,1-2.2-7,11.06,11.06,0,0,1,2.06-6.6,14.29,14.29,0,0,1,5.58-4.58,18.06,18.06,0,0,1,7.88-1.68,38.21,38.21,0,0,1,5,.32c1.59.21,3.11.48,4.55.8s2.81.64,4.11,1v11.74h-3.74l-1.29-6.27a1.67,1.67,0,0,0-.57-.88,8.08,8.08,0,0,0-.86-.69,9.8,9.8,0,0,0-1.81-1,13.69,13.69,0,0,0-2.39-.76,13.19,13.19,0,0,0-2.81-.28,11.42,11.42,0,0,0-7.06,1.92,5.74,5.74,0,0,0-2.51,4.7,8.57,8.57,0,0,0,1.36,4.66q1.37,2.16,5.23,3.6c1.71.61,3.38,1.2,5,1.76s3.43,1.23,5.37,2a20.1,20.1,0,0,1,4.11,2.34,10.82,10.82,0,0,1,4.5,9.31,13.1,13.1,0,0,1-1.82,6.64,13.34,13.34,0,0,1-5.77,5.14,23,23,0,0,1-10.3,2,26,26,0,0,1-4.67-.45q-2.46-.45-5-1.12C1000.63,631,998.94,630.57,997.28,630.12Z" transform="translate(-664.04 -467.08)"/><path class="cls-1" d="M1045.85,631.94v-2.4l5.28-1.56a2,2,0,0,0,.92-.53,1.57,1.57,0,0,0,.33-1.07V589.9h-10.56a1.3,1.3,0,0,0-.89.32,1.37,1.37,0,0,0-.48.89l-1.28,6.88h-3.75V586.06h40.64V598h-3.74l-1.28-6.88a1.65,1.65,0,0,0-.48-.93,1.34,1.34,0,0,0-.87-.28H1059.1v36.48a1.49,1.49,0,0,0,.37,1.07,2.26,2.26,0,0,0,.88.53l5.28,1.56v2.4Z" transform="translate(-664.04 -467.08)"/><path class="cls-1" d="M1081.82,631.94v-2.4l4.93-1.56a2,2,0,0,0,.88-.53,1.58,1.58,0,0,0,.34-1.07V591.56a1.35,1.35,0,0,0-.36-1,2,2,0,0,0-.86-.52l-4.93-1.63v-2.33h18.75a29.71,29.71,0,0,1,8.56,1,12.93,12.93,0,0,1,5.12,2.72,9.11,9.11,0,0,1,2.5,3.74,12.92,12.92,0,0,1,.69,4.13,11.89,11.89,0,0,1-1.67,6.42,13.27,13.27,0,0,1-4.12,4.24,15.57,15.57,0,0,1-4.9,2.11l-5.18,2.11-7.36-1.5.28-3.43a7.52,7.52,0,0,0,1.38.21c.72.08,1.5.13,2.32.18s1.47.06,1.94.06a11.49,11.49,0,0,0,5.69-1.26,8.37,8.37,0,0,0,3.35-3.35,9.39,9.39,0,0,0,1.1-4.44q0-4.8-2.75-7c-1.84-1.44-4.52-2.16-8.07-2.16h-4.76v36.48a1.49,1.49,0,0,0,.35,1.07,2.05,2.05,0,0,0,.86.53l5.06,1.56v2.4Zm44.64,0h-7.74a10.58,10.58,0,0,1-3.2-.36,4,4,0,0,1-1.79-1.27c-.5-.6-1.12-1.43-1.89-2.49L1100.35,612l6.5-2,12.06,16a7.39,7.39,0,0,0,1.14,1.23,3.61,3.61,0,0,0,1.48.91l4.93,1.44Z" transform="translate(-664.04 -467.08)"/><path class="cls-1" d="M1129.47,631.94v-2.4l5.18-1.56a2,2,0,0,0,.9-.55,1.53,1.53,0,0,0,.32-1V591.56a1.39,1.39,0,0,0-.35-1,2.13,2.13,0,0,0-.87-.52l-5.18-1.63v-2.33H1149v2.33l-5.15,1.63a2.19,2.19,0,0,0-.88.53,1.35,1.35,0,0,0-.37,1v34.82a1.45,1.45,0,0,0,.37,1.07,2.19,2.19,0,0,0,.88.53l5.15,1.56v2.4Z" transform="translate(-664.04 -467.08)"/><path class="cls-1" d="M1156.09,631.94v-2.4L1161,628a2.05,2.05,0,0,0,.86-.53,1.49,1.49,0,0,0,.36-1.07V591.56a1.35,1.35,0,0,0-.36-1,2,2,0,0,0-.86-.52l-4.93-1.63v-2.33h21a29.08,29.08,0,0,1,5.88.64,24.51,24.51,0,0,1,6.16,2.17,20,20,0,0,1,5.52,4.19,19.69,19.69,0,0,1,4,6.63,26.88,26.88,0,0,1,1.49,9.5q0,7.84-3.12,12.88a19,19,0,0,1-8.37,7.46,27.49,27.49,0,0,1-11.64,2.41Zm12.87-42v38.2h8.16q8,0,11.77-4.7t3.75-13.25a24.89,24.89,0,0,0-2.16-10.8,16.3,16.3,0,0,0-6.1-7,17.09,17.09,0,0,0-9.25-2.46Z" transform="translate(-664.04 -467.08)"/><path class="cls-1" d="M1207,631.94v-2.4l4.93-1.56a2,2,0,0,0,.88-.53,1.53,1.53,0,0,0,.34-1.07V591.56a1.39,1.39,0,0,0-.35-1,2.13,2.13,0,0,0-.87-.52l-4.93-1.63v-2.33h35.62v11.39h-3.78l-1.24-6.31a1.67,1.67,0,0,0-.48-.88,1.36,1.36,0,0,0-.9-.3h-16.35v16.16h9.82a1.42,1.42,0,0,0,1-.27,1.65,1.65,0,0,0,.43-.88l1.15-5.06h3.07v16.35h-3.07l-1.15-5a1.8,1.8,0,0,0-.43-.91,1.28,1.28,0,0,0-1-.31h-9.82v18h18.85a1.24,1.24,0,0,0,.84-.32,1.46,1.46,0,0,0,.47-.9l1.28-7h3.74v12.16Z" transform="translate(-664.04 -467.08)"/><path class="cls-2" d="M1216.36,546.54a.89.89,0,0,1-.76-.44l-4.16-7c-8.12-13.74-16.53-28-19.23-33.38a26.5,26.5,0,0,1-2.7-11.75,26.86,26.86,0,1,1,53.71,0,26.5,26.5,0,0,1-2.7,11.75l0,.05c-2.73,5.47-11.1,19.63-19.21,33.33l-4.16,7A.87.87,0,0,1,1216.36,546.54Zm0-77.69a25.12,25.12,0,0,0-25.09,25.09,24.85,24.85,0,0,0,2.52,11c2.67,5.36,11.06,19.54,19.16,33.24l3.41,5.77,3.41-5.75c8.11-13.71,16.49-27.89,19.17-33.27l0,0a24.79,24.79,0,0,0,2.5-10.92A25.12,25.12,0,0,0,1216.36,468.85Z" transform="translate(-664.04 -467.08)"/><path class="cls-2" d="M1216.36,504.55A11.66,11.66,0,1,1,1228,492.89,11.67,11.67,0,0,1,1216.36,504.55Zm0-21.55a9.89,9.89,0,1,0,9.89,9.89A9.9,9.9,0,0,0,1216.36,483Z" transform="translate(-664.04 -467.08)"/><rect class="cls-1" x="578.07" y="78.53" width="2.95" height="14.74"/><rect class="cls-1" x="523.64" y="78.53" width="2.95" height="14.74"/><rect class="cls-1" x="1214.89" y="533.13" width="2.95" height="51.48" transform="translate(1111.2 -1124.57) rotate(90)"/><line class="cls-3" x1="512.78" y1="76.57" x2="512.78" y2="76.17"/></svg>